<?xml version="1.0" standalone="no"?>
<!DOCTYPE svg PUBLIC "-//W3C//DTD SVG 20010904//EN"
 "http://www.w3.org/TR/2001/REC-SVG-20010904/DTD/svg10.dtd">
<svg version="1.0" xmlns="http://www.w3.org/2000/svg"
 width="208.000000pt" height="208.000000pt" viewBox="0 0 208.000000 208.000000"
 preserveAspectRatio="xMidYMid meet">
<metadata>
Created by potrace 1.14, written by Peter Selinger 2001-2017
</metadata>
<g transform="translate(0.000000,208.000000) scale(0.100000,-0.100000)"
fill="#000000" stroke="none">
<path d="M291 2059 c6 -13 7 -19 1 -15 -6 3 -12 3 -15 -1 -2 -5 -2 -2 -1 5 5
17 -3 15 -27 -9 -15 -15 -24 -18 -34 -9 -8 7 -15 7 -19 1 -3 -5 0 -12 6 -14 7
-3 0 -6 -15 -6 -19 -1 -26 -5 -21 -13 5 -7 1 -9 -12 -6 -14 4 -20 0 -21 -14
-1 -10 -12 -31 -24 -46 -12 -15 -19 -19 -16 -9 4 9 2 17 -4 17 -7 0 -9 -11 -7
-25 5 -22 3 -23 -10 -13 -11 9 -14 9 -9 1 4 -6 3 -14 -3 -18 -5 -3 -10 -1 -10
6 0 7 -2 10 -5 7 -3 -3 -1 -17 4 -31 8 -21 7 -25 -3 -21 -8 3 -17 0 -22 -7 -4
-8 -3 -10 4 -5 7 4 12 2 12 -3 0 -6 -4 -11 -9 -11 -4 0 -7 -11 -6 -24 2 -13
-1 -29 -6 -37 -7 -10 -8 -6 -5 13 3 15 0 30 -5 33 -12 8 -11 -1525 1 -1545 6
-9 10 -10 10 -3 0 12 25 12 37 -1 4 -4 2 -6 -6 -4 -25 6 -19 -31 10 -61 16
-17 28 -37 27 -43 -2 -8 6 -13 19 -12 18 0 20 -2 11 -13 -6 -8 -7 -13 -2 -11
5 2 11 -1 13 -7 8 -18 55 -50 69 -47 8 2 11 -1 7 -7 -3 -7 0 -8 9 -5 10 4 16
1 16 -7 0 -11 3 -11 10 1 6 10 10 11 10 3 0 -7 7 -13 16 -13 8 0 12 5 9 11 -4
6 2 5 13 -2 12 -7 18 -18 15 -23 -4 -6 -8 -5 -11 2 -4 13 -22 7 -22 -8 0 -10
1509 -14 1535 -4 8 3 15 11 15 16 0 7 -5 6 -13 -1 -10 -8 -14 -7 -14 4 0 8 3
13 5 10 3 -3 11 0 19 6 7 6 13 8 13 5 0 -4 10 -2 21 5 12 6 19 7 16 2 -4 -5 0
-10 8 -10 8 0 12 4 9 9 -3 4 2 8 11 8 9 0 13 5 10 10 -3 6 1 10 9 10 9 0 16 5
16 11 0 5 6 7 13 3 6 -4 9 -4 5 1 -5 5 2 13 15 20 13 6 21 18 19 29 -2 12 1
16 9 10 8 -5 11 -2 7 7 -3 8 0 23 8 34 8 10 14 14 14 9 0 -6 -6 -16 -12 -24
-11 -12 -10 -12 5 -1 9 7 17 20 17 27 0 8 6 14 13 14 8 0 7 4 -3 10 -11 7 -11
10 -2 10 7 0 10 5 7 10 -4 6 -11 7 -17 4 -7 -5 -8 -2 -4 5 5 7 10 10 13 7 2
-2 13 3 23 12 17 16 18 53 19 779 0 684 -1 762 -15 756 -13 -5 -13 -8 -2 -15
10 -8 10 -9 -2 -6 -8 3 -14 15 -14 29 0 13 -5 28 -10 32 -8 6 -6 10 3 14 10 4
4 12 -20 25 -19 11 -25 17 -14 14 20 -6 20 -6 1 9 -16 12 -22 12 -29 2 -6 -8
-7 -6 -3 6 3 10 -1 25 -9 34 -8 8 -12 19 -9 25 4 7 2 8 -5 4 -7 -5 -20 3 -32
18 -13 16 -25 23 -36 19 -11 -4 -14 -2 -9 5 5 8 2 10 -8 6 -10 -4 -16 -1 -16
7 0 11 -3 11 -10 -1 -8 -12 -10 -12 -10 -1 0 8 -7 11 -19 8 -23 -6 -48 7 -32
17 6 4 11 2 11 -4 0 -6 5 -8 10 -5 6 3 10 10 10 15 0 5 -321 9 -749 10 -592 0
-750 -3 -754 -12 -4 -10 -6 -10 -6 0 -1 6 -6 12 -11 12 -7 0 -7 -7 1 -21z
m1618 -52 c8 -10 7 -14 -4 -14 -8 0 -15 6 -15 14 0 7 2 13 4 13 2 0 9 -6 15
-13z m36 -47 c3 -5 1 -10 -4 -10 -6 0 -11 5 -11 10 0 6 2 10 4 10 3 0 8 -4 11
-10z m120 -189 c3 -5 2 -12 -3 -15 -5 -3 -9 1 -9 9 0 17 3 19 12 6z m-2035
-1480 c0 -6 -4 -12 -8 -15 -5 -3 -9 1 -9 9 0 8 4 15 9 15 4 0 8 -4 8 -9z m34
-77 c5 -14 4 -15 -9 -4 -17 14 -19 20 -6 20 5 0 12 -7 15 -16z m1911 -85 c-4
-5 -12 -9 -18 -8 -9 0 -8 2 1 6 6 2 9 10 6 15 -4 7 -2 8 5 4 6 -4 9 -12 6 -17z
m-54 -22 c-10 -9 -11 -8 -5 6 3 10 9 15 12 12 3 -3 0 -11 -7 -18z m-1714 -32
c5 -4 3 -5 -4 -2 -6 4 -13 2 -15 -4 -2 -7 -8 -6 -16 3 -9 12 -8 14 8 13 11 -1
23 -5 27 -10z m1568 -55 c3 -6 -1 -7 -9 -4 -18 7 -21 14 -7 14 6 0 13 -4 16
-10z"/>
<path d="M2066 263 c-6 -14 -5 -15 5 -6 7 7 10 15 7 18 -3 3 -9 -2 -12 -12z"/>
<path d="M1826 28 c3 -5 10 -6 15 -3 13 9 11 12 -6 12 -8 0 -12 -4 -9 -9z"/>
</g>
</svg>
